<mxfile host="app.diagrams.net" agent="Mozilla/5.0 (Macintosh; Intel Mac OS X 10_15_7) AppleWebKit/605.1.15 (KHTML, like Gecko) Version/17.6 Safari/605.1.15" version="24.9.0">
  <diagram name="Page-1" id="z9LAb5Ok6JyxKWv0N6qz">
    <mxGraphModel dx="795" dy="539" grid="1" gridSize="10" guides="1" tooltips="1" connect="1" arrows="1" fold="1" page="1" pageScale="1" pageWidth="850" pageHeight="1100" background="#ffffff" math="0" shadow="0">
      <root>
        <mxCell id="0" />
        <mxCell id="1" parent="0" />
        <mxCell id="XKFdUextkc2nJWJVsiQQ-31" value="" style="edgeStyle=orthogonalEdgeStyle;rounded=0;orthogonalLoop=1;jettySize=auto;html=1;" parent="1" edge="1">
          <mxGeometry relative="1" as="geometry">
            <mxPoint x="400" y="150" as="targetPoint" />
          </mxGeometry>
        </mxCell>
        <mxCell id="iPOr9jhTZgFF23cTAe3i-1" value="Start" style="ellipse;whiteSpace=wrap;html=1;" parent="1" vertex="1">
          <mxGeometry x="40" y="240" width="120" height="40" as="geometry" />
        </mxCell>
        <mxCell id="iPOr9jhTZgFF23cTAe3i-2" value="Positive integer n" style="shape=parallelogram;perimeter=parallelogramPerimeter;whiteSpace=wrap;html=1;fixedSize=1;" parent="1" vertex="1">
          <mxGeometry x="200" y="240" width="120" height="40" as="geometry" />
        </mxCell>
        <mxCell id="iPOr9jhTZgFF23cTAe3i-16" value="" style="endArrow=classic;html=1;rounded=0;exitX=1;exitY=0.5;exitDx=0;exitDy=0;entryX=0;entryY=0.5;entryDx=0;entryDy=0;" parent="1" source="iPOr9jhTZgFF23cTAe3i-1" target="iPOr9jhTZgFF23cTAe3i-2" edge="1">
          <mxGeometry width="50" height="50" relative="1" as="geometry">
            <mxPoint x="210" y="360" as="sourcePoint" />
            <mxPoint x="260" y="310" as="targetPoint" />
          </mxGeometry>
        </mxCell>
        <mxCell id="iPOr9jhTZgFF23cTAe3i-17" value="" style="endArrow=classic;html=1;rounded=0;exitX=1;exitY=0.5;exitDx=0;exitDy=0;entryX=0;entryY=0.5;entryDx=0;entryDy=0;" parent="1" source="iPOr9jhTZgFF23cTAe3i-2" edge="1">
          <mxGeometry width="50" height="50" relative="1" as="geometry">
            <mxPoint x="170" y="270" as="sourcePoint" />
            <mxPoint x="360" y="260" as="targetPoint" />
          </mxGeometry>
        </mxCell>
        <mxCell id="iPOr9jhTZgFF23cTAe3i-104" value="End" style="ellipse;whiteSpace=wrap;html=1;" parent="1" vertex="1">
          <mxGeometry x="720" y="240" width="120" height="40" as="geometry" />
        </mxCell>
        <mxCell id="Gtc7mg2F4XsaRouNKNXH-4" value="product" style="shape=parallelogram;perimeter=parallelogramPerimeter;whiteSpace=wrap;html=1;fixedSize=1;" parent="1" vertex="1">
          <mxGeometry x="560" y="240" width="120" height="40" as="geometry" />
        </mxCell>
        <mxCell id="Gtc7mg2F4XsaRouNKNXH-6" value="" style="endArrow=classic;html=1;rounded=0;exitX=1;exitY=0.5;exitDx=0;exitDy=0;entryX=0;entryY=0.5;entryDx=0;entryDy=0;" parent="1" source="Gtc7mg2F4XsaRouNKNXH-4" target="iPOr9jhTZgFF23cTAe3i-104" edge="1">
          <mxGeometry width="50" height="50" relative="1" as="geometry">
            <mxPoint x="530" y="270" as="sourcePoint" />
            <mxPoint x="580" y="270" as="targetPoint" />
          </mxGeometry>
        </mxCell>
        <mxCell id="Gtc7mg2F4XsaRouNKNXH-25" value="Calculate the product of the odd digits of n. If there are not odd digits return 0." style="rounded=0;whiteSpace=wrap;html=1;" parent="1" vertex="1">
          <mxGeometry x="360" y="240" width="160" height="40" as="geometry" />
        </mxCell>
        <mxCell id="Gtc7mg2F4XsaRouNKNXH-26" value="" style="endArrow=classic;html=1;rounded=0;exitX=1;exitY=0.5;exitDx=0;exitDy=0;entryX=0;entryY=0.5;entryDx=0;entryDy=0;" parent="1" source="Gtc7mg2F4XsaRouNKNXH-25" target="Gtc7mg2F4XsaRouNKNXH-4" edge="1">
          <mxGeometry width="50" height="50" relative="1" as="geometry">
            <mxPoint x="320" y="270" as="sourcePoint" />
            <mxPoint x="370" y="270" as="targetPoint" />
          </mxGeometry>
        </mxCell>
      </root>
    </mxGraphModel>
  </diagram>
</mxfile>